<?xml version="1.0" encoding="utf-8"?>
<svg version="1.1" xmlns:xlink="http://www.w3.org/1999/xlink" width="197px" height="30px" xmlns="http://www.w3.org/2000/svg">
  <g transform="matrix(1 0 0 1 -543 -81 )">
    <path d="M 544 83  A 1 1 0 0 1 545 82 L 738 82  A 1 1 0 0 1 739 83 L 739 109  A 1 1 0 0 1 738 110 L 545 110  A 1 1 0 0 1 544 109 L 544 83  Z " fill-rule="nonzero" fill="#ffffff" stroke="none" />
    <path d="M 543.5 83  A 1.5 1.5 0 0 1 545 81.5 L 738 81.5  A 1.5 1.5 0 0 1 739.5 83 L 739.5 109  A 1.5 1.5 0 0 1 738 110.5 L 545 110.5  A 1.5 1.5 0 0 1 543.5 109 L 543.5 83  Z " stroke-width="1" stroke="#999999" fill="none" stroke-opacity="0.247058823529412" />
  </g>
</svg>