<?xml version="1.0" encoding="utf-8"?>
<svg version="1.1" xmlns:xlink="http://www.w3.org/1999/xlink" width="1084px" height="32px" xmlns="http://www.w3.org/2000/svg">
  <g transform="matrix(1 0 0 1 -25 -843 )">
    <path d="M 26 847  A 3 3 0 0 1 29 844 L 1105 844  A 3 3 0 0 1 1108 847 L 1108 871  A 3 3 0 0 1 1105 874 L 29 874  A 3 3 0 0 1 26 871 L 26 847  Z " fill-rule="nonzero" fill="#ffffff" stroke="none" />
    <path d="M 25.5 847  A 3.5 3.5 0 0 1 29 843.5 L 1105 843.5  A 3.5 3.5 0 0 1 1108.5 847 L 1108.5 871  A 3.5 3.5 0 0 1 1105 874.5 L 29 874.5  A 3.5 3.5 0 0 1 25.5 871 L 25.5 847  Z " stroke-width="1" stroke-dasharray="9,4" stroke="#d9d9d9" fill="none" stroke-dashoffset="0.5" />
  </g>
</svg>