<?xml version="1.0" encoding="utf-8"?>
<svg version="1.1" xmlns:xlink="http://www.w3.org/1999/xlink" width="104px" height="104px" xmlns="http://www.w3.org/2000/svg">
  <g transform="matrix(1 0 0 1 -737 -637 )">
    <path d="M 738 641  A 3 3 0 0 1 741 638 L 837 638  A 3 3 0 0 1 840 641 L 840 737  A 3 3 0 0 1 837 740 L 741 740  A 3 3 0 0 1 738 737 L 738 641  Z " fill-rule="nonzero" fill="#ffffff" stroke="none" />
    <path d="M 737.5 641  A 3.5 3.5 0 0 1 741 637.5 L 837 637.5  A 3.5 3.5 0 0 1 840.5 641 L 840.5 737  A 3.5 3.5 0 0 1 837 740.5 L 741 740.5  A 3.5 3.5 0 0 1 737.5 737 L 737.5 641  Z " stroke-width="1" stroke-dasharray="9,4" stroke="#d9d9d9" fill="none" stroke-dashoffset="0.5" />
  </g>
</svg>