<?xml version="1.0" encoding="utf-8"?>
<svg version="1.1" xmlns:xlink="http://www.w3.org/1999/xlink" width="104px" height="104px" xmlns="http://www.w3.org/2000/svg">
  <g transform="matrix(1 0 0 1 -617 -637 )">
    <path d="M 618 641  A 3 3 0 0 1 621 638 L 717 638  A 3 3 0 0 1 720 641 L 720 737  A 3 3 0 0 1 717 740 L 621 740  A 3 3 0 0 1 618 737 L 618 641  Z " fill-rule="nonzero" fill="#000000" stroke="none" fill-opacity="0.0196078431372549" />
    <path d="M 617.5 641  A 3.5 3.5 0 0 1 621 637.5 L 717 637.5  A 3.5 3.5 0 0 1 720.5 641 L 720.5 737  A 3.5 3.5 0 0 1 717 740.5 L 621 740.5  A 3.5 3.5 0 0 1 617.5 737 L 617.5 641  Z " stroke-width="1" stroke-dasharray="9,4" stroke="#d9d9d9" fill="none" stroke-dashoffset="0.5" />
  </g>
</svg>