<?xml version="1.0" encoding="utf-8"?>
<svg version="1.1" xmlns:xlink="http://www.w3.org/1999/xlink" width="306px" height="30px" xmlns="http://www.w3.org/2000/svg">
  <g transform="matrix(1 0 0 1 -667 -114 )">
    <path d="M 668 116  A 1 1 0 0 1 669 115 L 971 115  A 1 1 0 0 1 972 116 L 972 142  A 1 1 0 0 1 971 143 L 669 143  A 1 1 0 0 1 668 142 L 668 116  Z " fill-rule="nonzero" fill="#ffffff" stroke="none" />
    <path d="M 667.5 116  A 1.5 1.5 0 0 1 669 114.5 L 971 114.5  A 1.5 1.5 0 0 1 972.5 116 L 972.5 142  A 1.5 1.5 0 0 1 971 143.5 L 669 143.5  A 1.5 1.5 0 0 1 667.5 142 L 667.5 116  Z " stroke-width="1" stroke="#999999" fill="none" stroke-opacity="0.247058823529412" />
  </g>
</svg>