<?xml version="1.0" encoding="utf-8"?>
<svg version="1.1" xmlns:xlink="http://www.w3.org/1999/xlink" width="440px" height="40px" xmlns="http://www.w3.org/2000/svg">
  <g transform="matrix(1 0 0 1 -941 -650 )">
    <path d="M 942 654  A 3 3 0 0 1 945 651 L 1377 651  A 3 3 0 0 1 1380 654 L 1380 686  A 3 3 0 0 1 1377 689 L 945 689  A 3 3 0 0 1 942 686 L 942 654  Z " fill-rule="nonzero" fill="#ffffff" stroke="none" />
    <path d="M 941.5 654  A 3.5 3.5 0 0 1 945 650.5 L 1377 650.5  A 3.5 3.5 0 0 1 1380.5 654 L 1380.5 686  A 3.5 3.5 0 0 1 1377 689.5 L 945 689.5  A 3.5 3.5 0 0 1 941.5 686 L 941.5 654  Z " stroke-width="1" stroke-dasharray="9,4" stroke="#d9d9d9" fill="none" stroke-dashoffset="0.5" />
  </g>
</svg>