<?xml version="1.0" encoding="utf-8"?>
<svg version="1.1" xmlns:xlink="http://www.w3.org/1999/xlink" width="22px" height="22px" xmlns="http://www.w3.org/2000/svg">
  <defs>
    <filter x="622px" y="205px" width="22px" height="22px" filterUnits="userSpaceOnUse" id="filter99">
      <feOffset dx="0" dy="0" in="SourceAlpha" result="shadowOffsetInner" />
      <feGaussianBlur stdDeviation="2" in="shadowOffsetInner" result="shadowGaussian" />
      <feComposite in2="shadowGaussian" operator="atop" in="SourceAlpha" result="shadowComposite" />
      <feColorMatrix type="matrix" values="0 0 0 0 0  0 0 0 0 0  0 0 0 0 0  0 0 0 0.149019607843137 0  " in="shadowComposite" />
    </filter>
    <g id="widget100">
      <path d="M 633 210  C 636.36 210  639 212.64  639 216  C 639 219.36  636.36 222  633 222  C 629.64 222  627 219.36  627 216  C 627 212.64  629.64 210  633 210  Z " fill-rule="nonzero" fill="#1890ff" stroke="none" />
      <path d="M 633 210  C 636.36 210  639 212.64  639 216  C 639 219.36  636.36 222  633 222  C 629.64 222  627 219.36  627 216  C 627 212.64  629.64 210  633 210  Z " stroke-width="2" stroke="#ffffff" fill="none" />
    </g>
  </defs>
  <g transform="matrix(1 0 0 1 -622 -205 )">
    <use xlink:href="#widget100" filter="url(#filter99)" />
    <use xlink:href="#widget100" />
  </g>
</svg>