<?xml version="1.0" encoding="utf-8"?>
<svg version="1.1" xmlns:xlink="http://www.w3.org/1999/xlink" width="11px" height="11px" xmlns="http://www.w3.org/2000/svg">
  <g transform="matrix(1 0 0 1 -360 -211 )">
    <path d="M 365.5 212  C 368.02 212  370 213.98  370 216.5  C 370 219.02  368.02 221  365.5 221  C 362.98 221  361 219.02  361 216.5  C 361 213.98  362.98 212  365.5 212  Z " fill-rule="nonzero" fill="#1890ff" stroke="none" />
    <path d="M 365.5 212  C 368.02 212  370 213.98  370 216.5  C 370 219.02  368.02 221  365.5 221  C 362.98 221  361 219.02  361 216.5  C 361 213.98  362.98 212  365.5 212  Z " stroke-width="2" stroke="#ffffff" fill="none" />
  </g>
</svg>