<?xml version="1.0" encoding="utf-8"?>
<svg version="1.1" xmlns:xlink="http://www.w3.org/1999/xlink" width="350px" height="190px" xmlns="http://www.w3.org/2000/svg">
  <g transform="matrix(1 0 0 1 -25 -90 )">
    <path d="M 26 92  A 1 1 0 0 1 27 91 L 373 91  A 1 1 0 0 1 374 92 L 374 278  A 1 1 0 0 1 373 279 L 27 279  A 1 1 0 0 1 26 278 L 26 92  Z " fill-rule="nonzero" fill="#ffffff" stroke="none" />
    <path d="M 25.5 92  A 1.5 1.5 0 0 1 27 90.5 L 373 90.5  A 1.5 1.5 0 0 1 374.5 92 L 374.5 278  A 1.5 1.5 0 0 1 373 279.5 L 27 279.5  A 1.5 1.5 0 0 1 25.5 278 L 25.5 92  Z " stroke-width="1" stroke="#dfe1e6" fill="none" stroke-opacity="0.498039215686275" />
  </g>
</svg>