<?xml version="1.0" encoding="utf-8"?>
<svg version="1.1" xmlns:xlink="http://www.w3.org/1999/xlink" width="103px" height="32px" xmlns="http://www.w3.org/2000/svg">
  <defs>
    <mask fill="white" id="clip119">
      <path d="M 103 27.4285714285714  L 103 4.57142857142857  C 103 2.01142857142857  100.1675 0  96.5625 0  L 0 0  L 0 32  L 96.5625 32  C 100.1675 32  103 29.9885714285714  103 27.4285714285714  Z " fill-rule="evenodd" />
    </mask>
  </defs>
  <g transform="matrix(1 0 0 1 -1057 -198 )">
    <path d="M 103 27.4285714285714  L 103 4.57142857142857  C 103 2.01142857142857  100.1675 0  96.5625 0  L 0 0  L 0 32  L 96.5625 32  C 100.1675 32  103 29.9885714285714  103 27.4285714285714  Z " fill-rule="nonzero" fill="#ffffff" stroke="none" transform="matrix(1 0 0 1 1057 198 )" />
    <path d="M 103 27.4285714285714  L 103 4.57142857142857  C 103 2.01142857142857  100.1675 0  96.5625 0  L 0 0  L 0 32  L 96.5625 32  C 100.1675 32  103 29.9885714285714  103 27.4285714285714  Z " stroke-width="2" stroke="#1890ff" fill="none" transform="matrix(1 0 0 1 1057 198 )" mask="url(#clip119)" />
  </g>
</svg>