<?xml version="1.0" encoding="utf-8"?>
<svg version="1.1" xmlns:xlink="http://www.w3.org/1999/xlink" width="340px" height="30px" xmlns="http://www.w3.org/2000/svg">
  <g transform="matrix(1 0 0 1 -281 -145 )">
    <path d="M 282 147  A 1 1 0 0 1 283 146 L 619 146  A 1 1 0 0 1 620 147 L 620 173  A 1 1 0 0 1 619 174 L 283 174  A 1 1 0 0 1 282 173 L 282 147  Z " fill-rule="nonzero" fill="#ffffff" stroke="none" />
    <path d="M 281.5 147  A 1.5 1.5 0 0 1 283 145.5 L 619 145.5  A 1.5 1.5 0 0 1 620.5 147 L 620.5 173  A 1.5 1.5 0 0 1 619 174.5 L 283 174.5  A 1.5 1.5 0 0 1 281.5 173 L 281.5 147  Z " stroke-width="1" stroke="#999999" fill="none" stroke-opacity="0.247058823529412" />
  </g>
</svg>