<?xml version="1.0" encoding="utf-8"?>
<svg version="1.1" xmlns:xlink="http://www.w3.org/1999/xlink" width="6px" height="6px" xmlns="http://www.w3.org/2000/svg">
  <g transform="matrix(1 0 0 1 -578 -222 )">
    <path d="M 581 222  C 582.68 222  584 223.32  584 225  C 584 226.68  582.68 228  581 228  C 579.32 228  578 226.68  578 225  C 578 223.32  579.32 222  581 222  Z " fill-rule="nonzero" fill="#1890ff" stroke="none" />
    <path d="M 581 222.5  C 582.4 222.5  583.5 223.6  583.5 225  C 583.5 226.4  582.4 227.5  581 227.5  C 579.6 227.5  578.5 226.4  578.5 225  C 578.5 223.6  579.6 222.5  581 222.5  Z " stroke-width="1" stroke="#1890ff" fill="none" />
  </g>
</svg>