<?xml version="1.0" encoding="utf-8"?>
<svg version="1.1" xmlns:xlink="http://www.w3.org/1999/xlink" width="75px" height="32px" xmlns="http://www.w3.org/2000/svg">
  <defs>
    <mask fill="white" id="clip107">
      <path d="M 75 27.4285714285714  L 75 4.57142857142857  C 75 2.01142857142857  72.9375 0  70.3125 0  L 0 0  L 0 32  L 70.3125 32  C 72.9375 32  75 29.9885714285714  75 27.4285714285714  Z " fill-rule="evenodd" />
    </mask>
  </defs>
  <g transform="matrix(1 0 0 1 -842 -960 )">
    <path d="M 75 27.4285714285714  L 75 4.57142857142857  C 75 2.01142857142857  72.9375 0  70.3125 0  L 0 0  L 0 32  L 70.3125 32  C 72.9375 32  75 29.9885714285714  75 27.4285714285714  Z " fill-rule="nonzero" fill="#ffffff" stroke="none" transform="matrix(1 0 0 1 842 960 )" />
    <path d="M 75 27.4285714285714  L 75 4.57142857142857  C 75 2.01142857142857  72.9375 0  70.3125 0  L 0 0  L 0 32  L 70.3125 32  C 72.9375 32  75 29.9885714285714  75 27.4285714285714  Z " stroke-width="2" stroke="#d9d9d9" fill="none" transform="matrix(1 0 0 1 842 960 )" mask="url(#clip107)" />
  </g>
</svg>