<?xml version="1.0" encoding="utf-8"?>
<svg version="1.1" xmlns:xlink="http://www.w3.org/1999/xlink" width="314px" height="30px" xmlns="http://www.w3.org/2000/svg">
  <g transform="matrix(1 0 0 1 -991 -81 )">
    <path d="M 992 83  A 1 1 0 0 1 993 82 L 1303 82  A 1 1 0 0 1 1304 83 L 1304 109  A 1 1 0 0 1 1303 110 L 993 110  A 1 1 0 0 1 992 109 L 992 83  Z " fill-rule="nonzero" fill="#ffffff" stroke="none" />
    <path d="M 991.5 83  A 1.5 1.5 0 0 1 993 81.5 L 1303 81.5  A 1.5 1.5 0 0 1 1304.5 83 L 1304.5 109  A 1.5 1.5 0 0 1 1303 110.5 L 993 110.5  A 1.5 1.5 0 0 1 991.5 109 L 991.5 83  Z " stroke-width="1" stroke="#999999" fill="none" stroke-opacity="0.247058823529412" />
  </g>
</svg>