<?xml version="1.0" encoding="utf-8"?>
<svg version="1.1" xmlns:xlink="http://www.w3.org/1999/xlink" width="8px" height="8px" xmlns="http://www.w3.org/2000/svg">
  <g transform="matrix(1 0 0 1 -854 -3514 )">
    <path d="M 858 3514  C 860.24 3514  862 3515.76  862 3518  C 862 3520.24  860.24 3522  858 3522  C 855.76 3522  854 3520.24  854 3518  C 854 3515.76  855.76 3514  858 3514  Z " fill-rule="nonzero" fill="#2fc25b" stroke="none" />
    <path d="M 858 3514.5  C 859.96 3514.5  861.5 3516.04  861.5 3518  C 861.5 3519.96  859.96 3521.5  858 3521.5  C 856.04 3521.5  854.5 3519.96  854.5 3518  C 854.5 3516.04  856.04 3514.5  858 3514.5  Z " stroke-width="1" stroke="#ffffff" fill="none" />
  </g>
</svg>