<?xml version="1.0" encoding="utf-8"?>
<svg version="1.1" xmlns:xlink="http://www.w3.org/1999/xlink" width="8px" height="8px" xmlns="http://www.w3.org/2000/svg">
  <g transform="matrix(1 0 0 1 -854 -3534 )">
    <path d="M 858 3534  C 860.24 3534  862 3535.76  862 3538  C 862 3540.24  860.24 3542  858 3542  C 855.76 3542  854 3540.24  854 3538  C 854 3535.76  855.76 3534  858 3534  Z " fill-rule="nonzero" fill="#1890ff" stroke="none" />
    <path d="M 858 3534.5  C 859.96 3534.5  861.5 3536.04  861.5 3538  C 861.5 3539.96  859.96 3541.5  858 3541.5  C 856.04 3541.5  854.5 3539.96  854.5 3538  C 854.5 3536.04  856.04 3534.5  858 3534.5  Z " stroke-width="1" stroke="#ffffff" fill="none" />
  </g>
</svg>