<?xml version="1.0" encoding="utf-8"?>
<svg version="1.1" xmlns:xlink="http://www.w3.org/1999/xlink" width="10px" height="10px" xmlns="http://www.w3.org/2000/svg">
  <g transform="matrix(1 0 0 1 -130 -700 )">
    <path d="M 135 701  C 137.24 701  139 702.76  139 705  C 139 707.24  137.24 709  135 709  C 132.76 709  131 707.24  131 705  C 131 702.76  132.76 701  135 701  Z " fill-rule="nonzero" fill="#ffffff" stroke="none" fill-opacity="0.952941176470588" />
    <path d="M 135 701  C 137.24 701  139 702.76  139 705  C 139 707.24  137.24 709  135 709  C 132.76 709  131 707.24  131 705  C 131 702.76  132.76 701  135 701  Z " stroke-width="2" stroke="#1890ff" fill="none" />
  </g>
</svg>