<?xml version="1.0" encoding="utf-8"?>
<svg version="1.1" xmlns:xlink="http://www.w3.org/1999/xlink" width="35px" height="35px" xmlns="http://www.w3.org/2000/svg">
  <g transform="matrix(1 0 0 1 -546 -304 )">
    <path d="M 563.5 304  C 573.3 304  581 311.7  581 321.5  C 581 331.3  573.3 339  563.5 339  C 553.7 339  546 331.3  546 321.5  C 546 311.7  553.7 304  563.5 304  Z " fill-rule="nonzero" fill="#1890ff" stroke="none" />
    <path d="M 563.5 304.5  C 573.02 304.5  580.5 311.98  580.5 321.5  C 580.5 331.02  573.02 338.5  563.5 338.5  C 553.98 338.5  546.5 331.02  546.5 321.5  C 546.5 311.98  553.98 304.5  563.5 304.5  Z " stroke-width="1" stroke="#1890ff" fill="none" />
  </g>
</svg>