<?xml version="1.0" encoding="utf-8"?>
<svg version="1.1" xmlns:xlink="http://www.w3.org/1999/xlink" width="35px" height="35px" xmlns="http://www.w3.org/2000/svg">
  <g transform="matrix(1 0 0 1 -546 -275 )">
    <path d="M 563.5 275  C 573.3 275  581 282.7  581 292.5  C 581 302.3  573.3 310  563.5 310  C 553.7 310  546 302.3  546 292.5  C 546 282.7  553.7 275  563.5 275  Z " fill-rule="nonzero" fill="#1890ff" stroke="none" />
    <path d="M 563.5 275.5  C 573.02 275.5  580.5 282.98  580.5 292.5  C 580.5 302.02  573.02 309.5  563.5 309.5  C 553.98 309.5  546.5 302.02  546.5 292.5  C 546.5 282.98  553.98 275.5  563.5 275.5  Z " stroke-width="1" stroke="#1890ff" fill="none" />
  </g>
</svg>