<?xml version="1.0" encoding="utf-8"?>
<svg version="1.1" xmlns:xlink="http://www.w3.org/1999/xlink" width="275px" height="30px" xmlns="http://www.w3.org/2000/svg">
  <g transform="matrix(1 0 0 1 -1121 -199 )">
    <path d="M 1122 201  A 1 1 0 0 1 1123 200 L 1394 200  A 1 1 0 0 1 1395 201 L 1395 227  A 1 1 0 0 1 1394 228 L 1123 228  A 1 1 0 0 1 1122 227 L 1122 201  Z " fill-rule="nonzero" fill="#ffffff" stroke="none" />
    <path d="M 1121.5 201  A 1.5 1.5 0 0 1 1123 199.5 L 1394 199.5  A 1.5 1.5 0 0 1 1395.5 201 L 1395.5 227  A 1.5 1.5 0 0 1 1394 228.5 L 1123 228.5  A 1.5 1.5 0 0 1 1121.5 227 L 1121.5 201  Z " stroke-width="1" stroke="#999999" fill="none" stroke-opacity="0.247058823529412" />
  </g>
</svg>