<?xml version="1.0" encoding="utf-8"?>
<svg version="1.1" xmlns:xlink="http://www.w3.org/1999/xlink" width="245px" height="45px" xmlns="http://www.w3.org/2000/svg">
  <g transform="matrix(1 0 0 1 -1136 -874 )">
    <path d="M 1137 876  A 1 1 0 0 1 1138 875 L 1379 875  A 1 1 0 0 1 1380 876 L 1380 917  A 1 1 0 0 1 1379 918 L 1138 918  A 1 1 0 0 1 1137 917 L 1137 876  Z " fill-rule="nonzero" fill="#1890ff" stroke="none" fill-opacity="0.4" />
    <path d="M 1136.5 876  A 1.5 1.5 0 0 1 1138 874.5 L 1379 874.5  A 1.5 1.5 0 0 1 1380.5 876 L 1380.5 917  A 1.5 1.5 0 0 1 1379 918.5 L 1138 918.5  A 1.5 1.5 0 0 1 1136.5 917 L 1136.5 876  Z " stroke-width="1" stroke="#1890ff" fill="none" stroke-opacity="0.2" />
  </g>
</svg>