<?xml version="1.0" encoding="utf-8"?>
<svg version="1.1" xmlns:xlink="http://www.w3.org/1999/xlink" width="235px" height="30px" xmlns="http://www.w3.org/2000/svg">
  <g transform="matrix(1 0 0 1 -956 -81 )">
    <path d="M 957 83  A 1 1 0 0 1 958 82 L 1189 82  A 1 1 0 0 1 1190 83 L 1190 109  A 1 1 0 0 1 1189 110 L 958 110  A 1 1 0 0 1 957 109 L 957 83  Z " fill-rule="nonzero" fill="#ffffff" stroke="none" />
    <path d="M 956.5 83  A 1.5 1.5 0 0 1 958 81.5 L 1189 81.5  A 1.5 1.5 0 0 1 1190.5 83 L 1190.5 109  A 1.5 1.5 0 0 1 1189 110.5 L 958 110.5  A 1.5 1.5 0 0 1 956.5 109 L 956.5 83  Z " stroke-width="1" stroke="#999999" fill="none" stroke-opacity="0.247058823529412" />
  </g>
</svg>