<?xml version="1.0" encoding="utf-8"?>
<svg version="1.1" xmlns:xlink="http://www.w3.org/1999/xlink" width="120px" height="30px" xmlns="http://www.w3.org/2000/svg">
  <g transform="matrix(1 0 0 1 -281 -81 )">
    <path d="M 282 83  A 1 1 0 0 1 283 82 L 399 82  A 1 1 0 0 1 400 83 L 400 109  A 1 1 0 0 1 399 110 L 283 110  A 1 1 0 0 1 282 109 L 282 83  Z " fill-rule="nonzero" fill="#ffffff" stroke="none" />
    <path d="M 281.5 83  A 1.5 1.5 0 0 1 283 81.5 L 399 81.5  A 1.5 1.5 0 0 1 400.5 83 L 400.5 109  A 1.5 1.5 0 0 1 399 110.5 L 283 110.5  A 1.5 1.5 0 0 1 281.5 109 L 281.5 83  Z " stroke-width="1" stroke="#999999" fill="none" stroke-opacity="0.247058823529412" />
  </g>
</svg>