<?xml version="1.0" encoding="utf-8"?>
<svg version="1.1" xmlns:xlink="http://www.w3.org/1999/xlink" width="140px" height="30px" xmlns="http://www.w3.org/2000/svg">
  <g transform="matrix(1 0 0 1 -448 -145 )">
    <path d="M 449 147  A 1 1 0 0 1 450 146 L 586 146  A 1 1 0 0 1 587 147 L 587 173  A 1 1 0 0 1 586 174 L 450 174  A 1 1 0 0 1 449 173 L 449 147  Z " fill-rule="nonzero" fill="#ffffff" stroke="none" />
    <path d="M 448.5 147  A 1.5 1.5 0 0 1 450 145.5 L 586 145.5  A 1.5 1.5 0 0 1 587.5 147 L 587.5 173  A 1.5 1.5 0 0 1 586 174.5 L 450 174.5  A 1.5 1.5 0 0 1 448.5 173 L 448.5 147  Z " stroke-width="1" stroke="#999999" fill="none" stroke-opacity="0.247058823529412" />
  </g>
</svg>