<?xml version="1.0" encoding="utf-8"?>
<svg version="1.1" xmlns:xlink="http://www.w3.org/1999/xlink" width="260px" height="170px" xmlns="http://www.w3.org/2000/svg">
  <g transform="matrix(1 0 0 1 -566 -551 )">
    <path d="M 567 553  A 1 1 0 0 1 568 552 L 824 552  A 1 1 0 0 1 825 553 L 825 719  A 1 1 0 0 1 824 720 L 568 720  A 1 1 0 0 1 567 719 L 567 553  Z " fill-rule="nonzero" fill="#ffffff" stroke="none" />
    <path d="M 566.5 553  A 1.5 1.5 0 0 1 568 551.5 L 824 551.5  A 1.5 1.5 0 0 1 825.5 553 L 825.5 719  A 1.5 1.5 0 0 1 824 720.5 L 568 720.5  A 1.5 1.5 0 0 1 566.5 719 L 566.5 553  Z " stroke-width="1" stroke="#dfe1e6" fill="none" stroke-opacity="0.498039215686275" />
  </g>
</svg>