<?xml version="1.0" encoding="utf-8"?>
<svg version="1.1" xmlns:xlink="http://www.w3.org/1999/xlink" width="32px" height="32px" xmlns="http://www.w3.org/2000/svg">
  <g transform="matrix(1 0 0 1 -831 -235 )">
    <path d="M 847 235.5  C 855.68 235.5  862.5 242.32  862.5 251  C 862.5 259.68  855.68 266.5  847 266.5  C 838.32 266.5  831.5 259.68  831.5 251  C 831.5 242.32  838.32 235.5  847 235.5  Z " fill-rule="nonzero" fill="#ffffff" stroke="none" fill-opacity="0" />
    <path d="M 847 235.5  C 855.68 235.5  862.5 242.32  862.5 251  C 862.5 259.68  855.68 266.5  847 266.5  C 838.32 266.5  831.5 259.68  831.5 251  C 831.5 242.32  838.32 235.5  847 235.5  Z " stroke-width="1" stroke="#000000" fill="none" stroke-opacity="0.149019607843137" />
  </g>
</svg>