<?xml version="1.0" encoding="utf-8"?>
<svg version="1.1" xmlns:xlink="http://www.w3.org/1999/xlink" width="104px" height="104px" xmlns="http://www.w3.org/2000/svg">
  <g transform="matrix(1 0 0 1 -737 -524 )">
    <path d="M 738 528  A 3 3 0 0 1 741 525 L 837 525  A 3 3 0 0 1 840 528 L 840 624  A 3 3 0 0 1 837 627 L 741 627  A 3 3 0 0 1 738 624 L 738 528  Z " fill-rule="nonzero" fill="#ffffff" stroke="none" />
    <path d="M 737.5 528  A 3.5 3.5 0 0 1 741 524.5 L 837 524.5  A 3.5 3.5 0 0 1 840.5 528 L 840.5 624  A 3.5 3.5 0 0 1 837 627.5 L 741 627.5  A 3.5 3.5 0 0 1 737.5 624 L 737.5 528  Z " stroke-width="1" stroke-dasharray="9,4" stroke="#d9d9d9" fill="none" stroke-dashoffset="0.5" />
  </g>
</svg>