<?xml version="1.0" encoding="utf-8"?>
<svg version="1.1" xmlns:xlink="http://www.w3.org/1999/xlink" width="104px" height="104px" xmlns="http://www.w3.org/2000/svg">
  <g transform="matrix(1 0 0 1 -617 -524 )">
    <path d="M 618 528  A 3 3 0 0 1 621 525 L 717 525  A 3 3 0 0 1 720 528 L 720 624  A 3 3 0 0 1 717 627 L 621 627  A 3 3 0 0 1 618 624 L 618 528  Z " fill-rule="nonzero" fill="#000000" stroke="none" fill-opacity="0.0196078431372549" />
    <path d="M 617.5 528  A 3.5 3.5 0 0 1 621 524.5 L 717 524.5  A 3.5 3.5 0 0 1 720.5 528 L 720.5 624  A 3.5 3.5 0 0 1 717 627.5 L 621 627.5  A 3.5 3.5 0 0 1 617.5 624 L 617.5 528  Z " stroke-width="1" stroke-dasharray="9,4" stroke="#d9d9d9" fill="none" stroke-dashoffset="0.5" />
  </g>
</svg>