<?xml version="1.0" encoding="utf-8"?>
<svg version="1.1" xmlns:xlink="http://www.w3.org/1999/xlink" width="30px" height="30px" xmlns="http://www.w3.org/2000/svg">
  <g transform="matrix(1 0 0 1 -100 -100 )">
    <path d="M 115 100  C 123.4 100  130 106.6  130 115  C 130 123.4  123.4 130  115 130  C 106.6 130  100 123.4  100 115  C 100 106.6  106.6 100  115 100  Z " fill-rule="nonzero" fill="#009dd9" stroke="none" />
    <path d="M 115 100.5  C 123.12 100.5  129.5 106.88  129.5 115  C 129.5 123.12  123.12 129.5  115 129.5  C 106.88 129.5  100.5 123.12  100.5 115  C 100.5 106.88  106.88 100.5  115 100.5  Z " stroke-width="1" stroke="#ffffff" fill="none" />
  </g>
</svg>