<?xml version="1.0" encoding="utf-8"?>
<svg version="1.1" xmlns:xlink="http://www.w3.org/1999/xlink" width="301px" height="30px" xmlns="http://www.w3.org/2000/svg">
  <g transform="matrix(1 0 0 1 -421 -81 )">
    <path d="M 422 83  A 1 1 0 0 1 423 82 L 720 82  A 1 1 0 0 1 721 83 L 721 109  A 1 1 0 0 1 720 110 L 423 110  A 1 1 0 0 1 422 109 L 422 83  Z " fill-rule="nonzero" fill="#ffffff" stroke="none" />
    <path d="M 421.5 83  A 1.5 1.5 0 0 1 423 81.5 L 720 81.5  A 1.5 1.5 0 0 1 721.5 83 L 721.5 109  A 1.5 1.5 0 0 1 720 110.5 L 423 110.5  A 1.5 1.5 0 0 1 421.5 109 L 421.5 83  Z " stroke-width="1" stroke="#999999" fill="none" stroke-opacity="0.247058823529412" />
  </g>
</svg>