<?xml version="1.0" encoding="utf-8"?>
<svg version="1.1" xmlns:xlink="http://www.w3.org/1999/xlink" width="180px" height="30px" xmlns="http://www.w3.org/2000/svg">
  <g transform="matrix(1 0 0 1 -25 -25 )">
    <path d="M 26 27  A 1 1 0 0 1 27 26 L 203 26  A 1 1 0 0 1 204 27 L 204 53  A 1 1 0 0 1 203 54 L 27 54  A 1 1 0 0 1 26 53 L 26 27  Z " fill-rule="nonzero" fill="#ffffff" stroke="none" />
    <path d="M 25.5 27  A 1.5 1.5 0 0 1 27 25.5 L 203 25.5  A 1.5 1.5 0 0 1 204.5 27 L 204.5 53  A 1.5 1.5 0 0 1 203 54.5 L 27 54.5  A 1.5 1.5 0 0 1 25.5 53 L 25.5 27  Z " stroke-width="1" stroke="#999999" fill="none" stroke-opacity="0.247058823529412" />
  </g>
</svg>