<?xml version="1.0" encoding="utf-8"?>
<svg version="1.1" xmlns:xlink="http://www.w3.org/1999/xlink" width="10px" height="10px" xmlns="http://www.w3.org/2000/svg">
  <g transform="matrix(1 0 0 1 -419 -75 )">
    <path d="M 424 75.5  C 426.52 75.5  428.5 77.48  428.5 80  C 428.5 82.52  426.52 84.5  424 84.5  C 421.48 84.5  419.5 82.52  419.5 80  C 419.5 77.48  421.48 75.5  424 75.5  Z " fill-rule="nonzero" fill="#ffffff" stroke="none" />
    <path d="M 424 75.5  C 426.52 75.5  428.5 77.48  428.5 80  C 428.5 82.52  426.52 84.5  424 84.5  C 421.48 84.5  419.5 82.52  419.5 80  C 419.5 77.48  421.48 75.5  424 75.5  Z " stroke-width="1" stroke="#000000" fill="none" stroke-opacity="0.4" />
  </g>
</svg>