<?xml version="1.0" encoding="utf-8"?>
<svg version="1.1" xmlns:xlink="http://www.w3.org/1999/xlink" width="10px" height="10px" xmlns="http://www.w3.org/2000/svg">
  <g transform="matrix(1 0 0 1 -25 -324 )">
    <path d="M 30 325  C 32.24 325  34 326.76  34 329  C 34 331.24  32.24 333  30 333  C 27.76 333  26 331.24  26 329  C 26 326.76  27.76 325  30 325  Z " fill-rule="nonzero" fill="#ffffff" stroke="none" fill-opacity="0.952941176470588" />
    <path d="M 30 325  C 32.24 325  34 326.76  34 329  C 34 331.24  32.24 333  30 333  C 27.76 333  26 331.24  26 329  C 26 326.76  27.76 325  30 325  Z " stroke-width="2" stroke="#1890ff" fill="none" />
  </g>
</svg>