<?xml version="1.0" encoding="utf-8"?>
<svg version="1.1" xmlns:xlink="http://www.w3.org/1999/xlink" width="10px" height="10px" xmlns="http://www.w3.org/2000/svg">
  <g transform="matrix(1 0 0 1 -700 -164 )">
    <path d="M 705 164.5  C 707.52 164.5  709.5 166.48  709.5 169  C 709.5 171.52  707.52 173.5  705 173.5  C 702.48 173.5  700.5 171.52  700.5 169  C 700.5 166.48  702.48 164.5  705 164.5  Z " fill-rule="nonzero" fill="#ffffff" stroke="none" />
    <path d="M 705 164.5  C 707.52 164.5  709.5 166.48  709.5 169  C 709.5 171.52  707.52 173.5  705 173.5  C 702.48 173.5  700.5 171.52  700.5 169  C 700.5 166.48  702.48 164.5  705 164.5  Z " stroke-width="1" stroke="#000000" fill="none" stroke-opacity="0.4" />
  </g>
</svg>