<?xml version="1.0" encoding="utf-8"?>
<svg version="1.1" xmlns:xlink="http://www.w3.org/1999/xlink" width="35px" height="35px" xmlns="http://www.w3.org/2000/svg">
  <g transform="matrix(1 0 0 1 -713 -378 )">
    <path d="M 730.5 378  C 740.3 378  748 385.7  748 395.5  C 748 405.3  740.3 413  730.5 413  C 720.7 413  713 405.3  713 395.5  C 713 385.7  720.7 378  730.5 378  Z " fill-rule="nonzero" fill="#ffffff" stroke="none" fill-opacity="0.952941176470588" />
    <path d="M 730.5 378.5  C 740.02 378.5  747.5 385.98  747.5 395.5  C 747.5 405.02  740.02 412.5  730.5 412.5  C 720.98 412.5  713.5 405.02  713.5 395.5  C 713.5 385.98  720.98 378.5  730.5 378.5  Z " stroke-width="1" stroke="#1890ff" fill="none" />
  </g>
</svg>