<?xml version="1.0" encoding="utf-8"?>
<svg version="1.1" xmlns:xlink="http://www.w3.org/1999/xlink" width="70px" height="70px" xmlns="http://www.w3.org/2000/svg">
  <g transform="matrix(1 0 0 1 -813 -509 )">
    <path d="M 848 509  C 867.6 509  883 524.4  883 544  C 883 563.6  867.6 579  848 579  C 828.4 579  813 563.6  813 544  C 813 524.4  828.4 509  848 509  Z " fill-rule="nonzero" fill="#1890ff" stroke="none" />
    <path d="M 848 509.5  C 867.32 509.5  882.5 524.68  882.5 544  C 882.5 563.32  867.32 578.5  848 578.5  C 828.68 578.5  813.5 563.32  813.5 544  C 813.5 524.68  828.68 509.5  848 509.5  Z " stroke-width="1" stroke="#1890ff" fill="none" />
  </g>
</svg>