<?xml version="1.0" encoding="utf-8"?>
<svg version="1.1" xmlns:xlink="http://www.w3.org/1999/xlink" width="14px" height="14px" xmlns="http://www.w3.org/2000/svg">
  <g transform="matrix(1 0 0 1 -2100 180 )">
    <path d="M 2107 -180  C 2110.92 -180  2114 -176.92  2114 -173  C 2114 -169.08  2110.92 -166  2107 -166  C 2103.08 -166  2100 -169.08  2100 -173  C 2100 -176.92  2103.08 -180  2107 -180  Z " fill-rule="nonzero" fill="#ffffff" stroke="none" fill-opacity="0" />
    <path d="M 2107 -179.5  C 2110.64 -179.5  2113.5 -176.64  2113.5 -173  C 2113.5 -169.36  2110.64 -166.5  2107 -166.5  C 2103.36 -166.5  2100.5 -169.36  2100.5 -173  C 2100.5 -176.64  2103.36 -179.5  2107 -179.5  Z " stroke-width="1" stroke="#d9d9d9" fill="none" />
  </g>
</svg>