<?xml version="1.0" encoding="utf-8"?>
<svg version="1.1" xmlns:xlink="http://www.w3.org/1999/xlink" width="14px" height="14px" xmlns="http://www.w3.org/2000/svg">
  <g transform="matrix(1 0 0 1 -2189 180 )">
    <path d="M 2196 -180  C 2199.92 -180  2203 -176.92  2203 -173  C 2203 -169.08  2199.92 -166  2196 -166  C 2192.08 -166  2189 -169.08  2189 -173  C 2189 -176.92  2192.08 -180  2196 -180  Z " fill-rule="nonzero" fill="#ffffff" stroke="none" fill-opacity="0" />
    <path d="M 2196 -179.5  C 2199.64 -179.5  2202.5 -176.64  2202.5 -173  C 2202.5 -169.36  2199.64 -166.5  2196 -166.5  C 2192.36 -166.5  2189.5 -169.36  2189.5 -173  C 2189.5 -176.64  2192.36 -179.5  2196 -179.5  Z " stroke-width="1" stroke="#1890ff" fill="none" />
  </g>
</svg>