<?xml version="1.0" encoding="utf-8"?>
<svg version="1.1" xmlns:xlink="http://www.w3.org/1999/xlink" width="12px" height="12px" xmlns="http://www.w3.org/2000/svg">
  <g transform="matrix(1 0 0 1 -46 -58 )">
    <path d="M 52 59  C 54.8 59  57 61.2  57 64  C 57 66.8  54.8 69  52 69  C 49.2 69  47 66.8  47 64  C 47 61.2  49.2 59  52 59  Z " fill-rule="nonzero" fill="#1890ff" stroke="none" />
    <path d="M 52 59  C 54.8 59  57 61.2  57 64  C 57 66.8  54.8 69  52 69  C 49.2 69  47 66.8  47 64  C 47 61.2  49.2 59  52 59  Z " stroke-width="2" stroke="#ffffff" fill="none" />
  </g>
</svg>