<?xml version="1.0" encoding="utf-8"?>
<svg version="1.1" xmlns:xlink="http://www.w3.org/1999/xlink" width="134px" height="35px" xmlns="http://www.w3.org/2000/svg">
  <g transform="matrix(1 0 0 1 -1151 -969 )">
    <path d="M 1152 971  A 1 1 0 0 1 1153 970 L 1283 970  A 1 1 0 0 1 1284 971 L 1284 1002  A 1 1 0 0 1 1283 1003 L 1153 1003  A 1 1 0 0 1 1152 1002 L 1152 971  Z " fill-rule="nonzero" fill="#ffffff" stroke="none" fill-opacity="0.952941176470588" />
    <path d="M 1151.5 971  A 1.5 1.5 0 0 1 1153 969.5 L 1283 969.5  A 1.5 1.5 0 0 1 1284.5 971 L 1284.5 1002  A 1.5 1.5 0 0 1 1283 1003.5 L 1153 1003.5  A 1.5 1.5 0 0 1 1151.5 1002 L 1151.5 971  Z " stroke-width="1" stroke="#61a5e8" fill="none" stroke-opacity="0.498039215686275" />
  </g>
</svg>