<?xml version="1.0" encoding="utf-8"?>
<svg version="1.1" xmlns:xlink="http://www.w3.org/1999/xlink" width="22px" height="22px" xmlns="http://www.w3.org/2000/svg">
  <defs>
    <filter x="41px" y="124px" width="22px" height="22px" filterUnits="userSpaceOnUse" id="filter19">
      <feOffset dx="0" dy="0" in="SourceAlpha" result="shadowOffsetInner" />
      <feGaussianBlur stdDeviation="2" in="shadowOffsetInner" result="shadowGaussian" />
      <feComposite in2="shadowGaussian" operator="atop" in="SourceAlpha" result="shadowComposite" />
      <feColorMatrix type="matrix" values="0 0 0 0 0  0 0 0 0 0  0 0 0 0 0  0 0 0 0.149019607843137 0  " in="shadowComposite" />
    </filter>
    <g id="widget20">
      <path d="M 52 129  C 55.36 129  58 131.64  58 135  C 58 138.36  55.36 141  52 141  C 48.64 141  46 138.36  46 135  C 46 131.64  48.64 129  52 129  Z " fill-rule="nonzero" fill="#1890ff" stroke="none" />
      <path d="M 52 129  C 55.36 129  58 131.64  58 135  C 58 138.36  55.36 141  52 141  C 48.64 141  46 138.36  46 135  C 46 131.64  48.64 129  52 129  Z " stroke-width="2" stroke="#ffffff" fill="none" />
    </g>
  </defs>
  <g transform="matrix(1 0 0 1 -41 -124 )">
    <use xlink:href="#widget20" filter="url(#filter19)" />
    <use xlink:href="#widget20" />
  </g>
</svg>