<?xml version="1.0" encoding="utf-8"?>
<svg version="1.1" xmlns:xlink="http://www.w3.org/1999/xlink" width="400px" height="32px" xmlns="http://www.w3.org/2000/svg">
  <g transform="matrix(1 0 0 1 -648 -523 )">
    <path d="M 649 527  A 3 3 0 0 1 652 524 L 1044 524  A 3 3 0 0 1 1047 527 L 1047 551  A 3 3 0 0 1 1044 554 L 652 554  A 3 3 0 0 1 649 551 L 649 527  Z " fill-rule="nonzero" fill="#1890ff" stroke="none" fill-opacity="0.149019607843137" />
    <path d="M 648.5 527  A 3.5 3.5 0 0 1 652 523.5 L 1044 523.5  A 3.5 3.5 0 0 1 1047.5 527 L 1047.5 551  A 3.5 3.5 0 0 1 1044 554.5 L 652 554.5  A 3.5 3.5 0 0 1 648.5 551 L 648.5 527  Z " stroke-width="1" stroke="#1890ff" fill="none" stroke-opacity="0.247058823529412" />
  </g>
</svg>