<?xml version="1.0" encoding="utf-8"?>
<svg version="1.1" xmlns:xlink="http://www.w3.org/1999/xlink" width="159px" height="44px" xmlns="http://www.w3.org/2000/svg">
  <g transform="matrix(1 0 0 1 -301 -159 )">
    <path d="M 302 161  A 1 1 0 0 1 303 160 L 458 160  A 1 1 0 0 1 459 161 L 459 201  A 1 1 0 0 1 458 202 L 303 202  A 1 1 0 0 1 302 201 L 302 161  Z " fill-rule="nonzero" fill="#ffffff" stroke="none" />
    <path d="M 301.5 161  A 1.5 1.5 0 0 1 303 159.5 L 458 159.5  A 1.5 1.5 0 0 1 459.5 161 L 459.5 201  A 1.5 1.5 0 0 1 458 202.5 L 303 202.5  A 1.5 1.5 0 0 1 301.5 201 L 301.5 161  Z " stroke-width="1" stroke="#999999" fill="none" stroke-opacity="0.247058823529412" />
  </g>
</svg>