<?xml version="1.0" encoding="utf-8"?>
<svg version="1.1" xmlns:xlink="http://www.w3.org/1999/xlink" width="135px" height="35px" xmlns="http://www.w3.org/2000/svg">
  <g transform="matrix(1 0 0 1 -1226 -969 )">
    <path d="M 1227 971  A 1 1 0 0 1 1228 970 L 1359 970  A 1 1 0 0 1 1360 971 L 1360 1002  A 1 1 0 0 1 1359 1003 L 1228 1003  A 1 1 0 0 1 1227 1002 L 1227 971  Z " fill-rule="nonzero" fill="#ffffff" stroke="none" fill-opacity="0.952941176470588" />
    <path d="M 1226.5 971  A 1.5 1.5 0 0 1 1228 969.5 L 1359 969.5  A 1.5 1.5 0 0 1 1360.5 971 L 1360.5 1002  A 1.5 1.5 0 0 1 1359 1003.5 L 1228 1003.5  A 1.5 1.5 0 0 1 1226.5 1002 L 1226.5 971  Z " stroke-width="1" stroke="#61a5e8" fill="none" stroke-opacity="0.498039215686275" />
  </g>
</svg>