<?xml version="1.0" encoding="utf-8"?>
<svg version="1.1" xmlns:xlink="http://www.w3.org/1999/xlink" width="365px" height="250px" xmlns="http://www.w3.org/2000/svg">
  <g transform="matrix(1 0 0 1 -281 -192 )">
    <path d="M 282 194  A 1 1 0 0 1 283 193 L 644 193  A 1 1 0 0 1 645 194 L 645 440  A 1 1 0 0 1 644 441 L 283 441  A 1 1 0 0 1 282 440 L 282 194  Z " fill-rule="nonzero" fill="#ffffff" stroke="none" />
    <path d="M 281.5 194  A 1.5 1.5 0 0 1 283 192.5 L 644 192.5  A 1.5 1.5 0 0 1 645.5 194 L 645.5 440  A 1.5 1.5 0 0 1 644 441.5 L 283 441.5  A 1.5 1.5 0 0 1 281.5 440 L 281.5 194  Z " stroke-width="1" stroke="#dfe1e6" fill="none" stroke-opacity="0.498039215686275" />
  </g>
</svg>