<?xml version="1.0" encoding="utf-8"?>
<svg version="1.1" xmlns:xlink="http://www.w3.org/1999/xlink" width="6px" height="6px" xmlns="http://www.w3.org/2000/svg">
  <g transform="matrix(1 0 0 1 -297 -30 )">
    <path d="M 300 30  C 301.68 30  303 31.32  303 33  C 303 34.68  301.68 36  300 36  C 298.32 36  297 34.68  297 33  C 297 31.32  298.32 30  300 30  Z " fill-rule="nonzero" fill="#1890ff" stroke="none" />
    <path d="M 300 30.5  C 301.4 30.5  302.5 31.6  302.5 33  C 302.5 34.4  301.4 35.5  300 35.5  C 298.6 35.5  297.5 34.4  297.5 33  C 297.5 31.6  298.6 30.5  300 30.5  Z " stroke-width="1" stroke="#1890ff" fill="none" />
  </g>
</svg>