<?xml version="1.0" encoding="utf-8"?>
<svg version="1.1" xmlns:xlink="http://www.w3.org/1999/xlink" width="104px" height="30px" xmlns="http://www.w3.org/2000/svg">
  <g transform="matrix(1 0 0 1 -836 -81 )">
    <path d="M 837 83  A 1 1 0 0 1 838 82 L 938 82  A 1 1 0 0 1 939 83 L 939 109  A 1 1 0 0 1 938 110 L 838 110  A 1 1 0 0 1 837 109 L 837 83  Z " fill-rule="nonzero" fill="#ffffff" stroke="none" />
    <path d="M 836.5 83  A 1.5 1.5 0 0 1 838 81.5 L 938 81.5  A 1.5 1.5 0 0 1 939.5 83 L 939.5 109  A 1.5 1.5 0 0 1 938 110.5 L 838 110.5  A 1.5 1.5 0 0 1 836.5 109 L 836.5 83  Z " stroke-width="1" stroke="#999999" fill="none" stroke-opacity="0.247058823529412" />
  </g>
</svg>