<?xml version="1.0" encoding="utf-8"?>
<svg version="1.1" xmlns:xlink="http://www.w3.org/1999/xlink" width="173px" height="40px" xmlns="http://www.w3.org/2000/svg">
  <g transform="matrix(1 0 0 1 -281 -76 )">
    <path d="M 282 78  A 1 1 0 0 1 283 77 L 452 77  A 1 1 0 0 1 453 78 L 453 114  A 1 1 0 0 1 452 115 L 283 115  A 1 1 0 0 1 282 114 L 282 78  Z " fill-rule="nonzero" fill="#ffffff" stroke="none" />
    <path d="M 281.5 78  A 1.5 1.5 0 0 1 283 76.5 L 452 76.5  A 1.5 1.5 0 0 1 453.5 78 L 453.5 114  A 1.5 1.5 0 0 1 452 115.5 L 283 115.5  A 1.5 1.5 0 0 1 281.5 114 L 281.5 78  Z " stroke-width="1" stroke="#999999" fill="none" stroke-opacity="0.247058823529412" />
  </g>
</svg>