<?xml version="1.0" encoding="utf-8"?>
<svg version="1.1" xmlns:xlink="http://www.w3.org/1999/xlink" width="126px" height="30px" xmlns="http://www.w3.org/2000/svg">
  <g transform="matrix(1 0 0 1 -686 -81 )">
    <path d="M 687 83  A 1 1 0 0 1 688 82 L 810 82  A 1 1 0 0 1 811 83 L 811 109  A 1 1 0 0 1 810 110 L 688 110  A 1 1 0 0 1 687 109 L 687 83  Z " fill-rule="nonzero" fill="#ffffff" stroke="none" />
    <path d="M 686.5 83  A 1.5 1.5 0 0 1 688 81.5 L 810 81.5  A 1.5 1.5 0 0 1 811.5 83 L 811.5 109  A 1.5 1.5 0 0 1 810 110.5 L 688 110.5  A 1.5 1.5 0 0 1 686.5 109 L 686.5 83  Z " stroke-width="1" stroke="#999999" fill="none" stroke-opacity="0.247058823529412" />
  </g>
</svg>