<?xml version="1.0" encoding="utf-8"?>
<svg version="1.1" xmlns:xlink="http://www.w3.org/1999/xlink" width="498px" height="44px" xmlns="http://www.w3.org/2000/svg">
  <g transform="matrix(1 0 0 1 -281 -89 )">
    <path d="M 282 91  A 1 1 0 0 1 283 90 L 777 90  A 1 1 0 0 1 778 91 L 778 131  A 1 1 0 0 1 777 132 L 283 132  A 1 1 0 0 1 282 131 L 282 91  Z " fill-rule="nonzero" fill="#ffffff" stroke="none" />
    <path d="M 281.5 91  A 1.5 1.5 0 0 1 283 89.5 L 777 89.5  A 1.5 1.5 0 0 1 778.5 91 L 778.5 131  A 1.5 1.5 0 0 1 777 132.5 L 283 132.5  A 1.5 1.5 0 0 1 281.5 131 L 281.5 91  Z " stroke-width="1" stroke="#999999" fill="none" stroke-opacity="0.247058823529412" />
  </g>
</svg>