<?xml version="1.0" encoding="utf-8"?>
<svg version="1.1" xmlns:xlink="http://www.w3.org/1999/xlink" width="306px" height="30px" xmlns="http://www.w3.org/2000/svg">
  <g transform="matrix(1 0 0 1 -994 -81 )">
    <path d="M 995 83  A 1 1 0 0 1 996 82 L 1298 82  A 1 1 0 0 1 1299 83 L 1299 109  A 1 1 0 0 1 1298 110 L 996 110  A 1 1 0 0 1 995 109 L 995 83  Z " fill-rule="nonzero" fill="#ffffff" stroke="none" />
    <path d="M 994.5 83  A 1.5 1.5 0 0 1 996 81.5 L 1298 81.5  A 1.5 1.5 0 0 1 1299.5 83 L 1299.5 109  A 1.5 1.5 0 0 1 1298 110.5 L 996 110.5  A 1.5 1.5 0 0 1 994.5 109 L 994.5 83  Z " stroke-width="1" stroke="#999999" fill="none" stroke-opacity="0.247058823529412" />
  </g>
</svg>